<svg width="634" height="66" viewBox="0 0 634 66" fill="none" xmlns="http://www.w3.org/2000/svg">
<path d="M52.9812 52.5313C54.2075 54.4063 55.2296 55.9063 56.0472 57.0313C56.896 58.125 57.635 58.9844 58.2642 59.6096C58.8933 60.2342 59.5061 60.719 60.1039 61.0628C60.733 61.3748 61.5505 61.6718 62.5564 61.9532V65H36.9906V61.9064C38.0598 61.7498 38.7831 61.5002 39.1604 61.1564C39.5378 60.7814 39.7264 60.2966 39.7264 59.7032C39.7264 59.2034 39.6478 58.7187 39.4906 58.25C39.3648 57.75 39.0346 57.0313 38.5 56.0937C37.9654 55.1563 36.8805 53.4375 35.2453 50.9375L28.0283 39.875C27.1478 38.5312 26.3774 37.4844 25.717 36.7344C25.0881 35.9844 24.4434 35.4531 23.783 35.1406C23.1541 34.7969 22.2736 34.625 21.1415 34.625H20.1981V53.2344C20.1981 54.3281 20.2296 55.3437 20.2925 56.2813C20.3553 57.2187 20.4812 57.9844 20.6698 58.5781C20.8585 59.1716 21.1258 59.672 21.4717 60.0782C21.8491 60.4844 22.3522 60.8438 22.9812 61.1564C23.6101 61.4372 24.3805 61.6874 25.2925 61.9064V65H0.52832V61.9064C1.69184 61.5938 2.60379 61.2656 3.26414 60.9218C3.956 60.5468 4.45913 60.047 4.77357 59.4218C5.11954 58.7656 5.33967 57.9531 5.43398 56.9844C5.52829 55.9844 5.57551 54.7344 5.57551 53.2344V12.8281C5.57551 11.3594 5.52829 10.125 5.43398 9.125C5.37107 8.12498 5.16669 7.31252 4.82079 6.6875C4.50628 6.06248 4.00316 5.5625 3.31135 5.1875C2.65095 4.78125 1.72329 4.42187 0.52832 4.10937V1.01562H25.2925V4.10937C23.9717 4.45312 22.9968 4.82812 22.368 5.23436C21.7705 5.64062 21.3145 6.125 21 6.6875C20.717 7.25 20.5126 7.96874 20.3868 8.84372C20.261 9.71876 20.1981 11.0469 20.1981 12.8281V29.5156H21.1887C22.6352 29.5156 23.783 29.3594 24.6321 29.0469C25.4811 28.7344 26.3459 28.1719 27.2265 27.3594C28.1384 26.5469 29.868 24.6562 32.4151 21.6875C34.9937 18.6875 36.849 16.3906 37.9811 14.7969C39.1447 13.1719 39.9308 11.8437 40.3396 10.8125C40.7799 9.75002 41 8.70314 41 7.67186C41 6.57812 40.6226 5.71874 39.8679 5.09372C39.1447 4.46875 38.1069 4.14062 36.7547 4.10937V1.01562H60.8586V4.20312C59.6637 4.42187 58.6415 4.75 57.7926 5.1875C56.9437 5.62502 55.9686 6.34376 54.8679 7.34372C53.7673 8.31248 52.368 9.75002 50.6698 11.6563L36.5189 27.4063L52.9812 52.5313ZM106.519 12.7813C106.519 10.4375 106.409 8.81252 106.189 7.90628C106 6.96872 105.607 6.21872 105.01 5.65628C104.412 5.09372 103.248 4.57813 101.519 4.10937V1.01562H122.274V4.10937C121.142 4.42187 120.245 4.76563 119.585 5.14064C118.925 5.48438 118.421 5.98436 118.076 6.64064C117.73 7.2656 117.509 8.07812 117.415 9.07814C117.321 10.0469 117.273 11.2813 117.273 12.7813V42.0781C117.273 45.9531 116.959 49.2031 116.33 51.8281C115.701 54.4219 114.727 56.6094 113.406 58.3906C112.085 60.1718 110.434 61.6094 108.453 62.7032C106.503 63.797 104.302 64.5782 101.849 65.0468C99.3962 65.5154 96.6449 65.75 93.5946 65.75C89.1291 65.75 85.3555 65.297 82.2738 64.3904C79.1916 63.4532 76.6762 62.0624 74.7267 60.2186C72.8085 58.3437 71.3775 56.0781 70.4338 53.4219C69.5221 50.7656 69.0663 47.3437 69.0663 43.1563V12.8281C69.0663 11.3594 69.0192 10.125 68.9244 9.125C68.8616 8.12498 68.6575 7.31252 68.3116 6.6875C67.997 6.06248 67.4935 5.5625 66.8021 5.1875C66.1416 4.78125 65.2136 4.42187 64.0187 4.10937V1.01562H88.7831V4.10937C87.4935 4.45312 86.5347 4.82812 85.9055 5.23436C85.3084 5.60936 84.8519 6.07814 84.538 6.64064C84.2234 7.20314 84.003 7.93748 83.8775 8.84372C83.7519 9.75002 83.6885 11.0781 83.6885 12.8281V43.7656C83.6885 46.2344 83.8461 48.4844 84.1606 50.5156C84.4746 52.5469 85.0409 54.2969 85.8584 55.7656C86.7073 57.2031 87.8708 58.3125 89.3489 59.0936C90.8269 59.8748 92.7294 60.2654 95.0563 60.2654C98.2642 60.2654 100.654 59.6252 102.227 58.3437C103.799 57.0625 104.9 55.2813 105.528 53C106.189 50.6875 106.519 47.25 106.519 42.6875V12.7813ZM177.179 2.46875V16.0625H170.764C170.009 12.5313 168.815 9.93752 167.179 8.28128C165.544 6.59372 163.406 5.75 160.764 5.75C155.795 5.75 152.038 8.12498 149.491 12.875C146.943 17.5938 145.67 24.6094 145.67 33.9219C145.67 42.5781 146.834 49.1406 149.16 53.6094C151.487 58.0469 154.899 60.2654 159.396 60.2654C161.692 60.2654 163.563 59.8904 165.01 59.1404C166.456 58.3594 167.604 57.2031 168.453 55.6719C169.333 54.1406 170.088 51.9844 170.717 49.2031H177.179V63.4064C173.72 64.2188 170.56 64.8128 167.698 65.1872C164.836 65.5628 161.865 65.75 158.783 65.75C152.242 65.75 146.896 64.5782 142.745 62.2346C138.626 59.8904 135.576 56.3594 133.595 51.6406C131.644 46.8906 130.67 40.8906 130.67 33.6406C130.67 26.8594 131.818 20.9688 134.113 15.9687C136.44 10.9375 139.852 7.0625 144.349 4.34375C148.846 1.625 154.223 0.265625 160.481 0.265625C163.657 0.265625 166.535 0.437495 169.113 0.781247C171.692 1.125 174.381 1.6875 177.179 2.46875ZM241.33 53.2344C241.33 55.6406 241.424 57.2969 241.613 58.2031C241.833 59.078 242.258 59.8124 242.887 60.4064C243.516 60.9998 244.664 61.5002 246.33 61.9064V65H221.708V61.9064C223.532 61.4372 224.711 60.9686 225.246 60.5C225.78 60.0314 226.157 59.375 226.377 58.5313C226.597 57.6562 226.707 55.8906 226.707 53.2344V34.4375H205.387V53.2344C205.387 54.3281 205.418 55.3437 205.481 56.2813C205.544 57.2187 205.67 57.9844 205.858 58.5781C206.047 59.1716 206.314 59.672 206.66 60.0782C207.038 60.4844 207.541 60.8438 208.17 61.1564C208.799 61.4372 209.569 61.6874 210.481 61.9064V65H185.717V61.9064C186.881 61.5938 187.792 61.2656 188.453 60.9218C189.145 60.5468 189.648 60.047 189.962 59.4218C190.308 58.7656 190.529 57.9531 190.623 56.9844C190.717 55.9844 190.764 54.7344 190.764 53.2344V12.8281C190.764 11.3594 190.717 10.125 190.623 9.125C190.56 8.12498 190.355 7.31252 190.009 6.6875C189.695 6.06248 189.192 5.5625 188.5 5.1875C187.839 4.78125 186.912 4.42187 185.717 4.10937V1.01562H210.481V4.10937C208.815 4.57813 207.667 5.09372 207.038 5.65628C206.44 6.21872 206.016 6.96872 205.764 7.90628C205.512 8.81252 205.387 10.4688 205.387 12.875V28.5313H226.707V12.875C226.707 10.5 226.597 8.85938 226.377 7.95314C226.189 7.01564 225.78 6.26564 225.151 5.70314C224.554 5.10938 223.406 4.57813 221.708 4.10937V1.01562H246.33V4.10937C244.947 4.48437 243.94 4.89062 243.311 5.32814C242.683 5.7344 242.226 6.26564 241.944 6.92186C241.692 7.57814 241.519 8.31248 241.424 9.125C241.362 9.93752 241.33 11.1875 241.33 12.875V53.2344ZM302.227 1.01562V15.9219H295.764C294.727 12.9531 293.846 10.9531 293.122 9.92186C292.399 8.85938 291.535 8.03126 290.528 7.4375C289.522 6.81248 287.808 6.5 285.387 6.5H275.104V29H281.33C282.714 29 283.799 28.8125 284.585 28.4375C285.371 28.0312 286.016 27.375 286.519 26.4687C287.053 25.5625 287.557 24.1563 288.028 22.25H293.359V41.2813H288.028C287.588 39.4687 287.1 38.0937 286.566 37.1563C286.032 36.1875 285.387 35.5 284.632 35.0937C283.909 34.6875 282.808 34.4844 281.33 34.4844H275.104V59.5154H285.34C286.44 59.5154 287.368 59.453 288.123 59.3282C288.877 59.1716 289.554 58.9219 290.151 58.5781C290.748 58.2344 291.315 57.7656 291.849 57.1719C292.415 56.5781 292.903 55.9375 293.311 55.25C293.752 54.5625 294.207 53.6563 294.68 52.5313C295.151 51.4063 295.67 49.8594 296.236 47.8906H302.698L301.802 65H255.434V61.9064C256.598 61.5938 257.509 61.2656 258.17 60.9218C258.862 60.5468 259.365 60.047 259.679 59.4218C260.025 58.7656 260.245 57.9531 260.339 56.9844C260.434 55.9844 260.481 54.7344 260.481 53.2344V12.8281C260.481 11.3594 260.434 10.125 260.339 9.125C260.277 8.12498 260.072 7.31252 259.727 6.6875C259.412 6.06248 258.909 5.5625 258.217 5.1875C257.557 4.78125 256.629 4.42187 255.434 4.10937V1.01562H302.227ZM368.453 1.01562V4.10937C367.195 4.51562 366.299 4.85937 365.764 5.14064C365.261 5.42186 364.821 5.79686 364.443 6.26564C364.097 6.73436 363.83 7.4531 363.641 8.42186C363.453 9.35936 363.359 10.8125 363.359 12.7813V65H351.378L330.151 28.5313C327.289 23.5938 325.182 19.7187 323.83 16.9063H323.406C323.72 23.625 323.877 30.7188 323.877 38.1875V53.2813C323.877 55.625 323.987 57.2656 324.208 58.2031C324.459 59.1404 324.884 59.8904 325.481 60.4532C326.11 60.9842 327.274 61.469 328.971 61.9064V65H311.141V61.9064C312.305 61.5938 313.217 61.25 313.877 60.875C314.569 60.5 315.073 60.0002 315.387 59.375C315.733 58.7187 315.953 57.9063 316.047 56.9375C316.141 55.9687 316.188 54.75 316.188 53.2813V12.7344C316.188 10.3906 316.079 8.78126 315.859 7.90628C315.67 6.99998 315.245 6.24998 314.585 5.65628C313.956 5.06252 312.808 4.54687 311.141 4.10937V1.01562H330.245L346.943 29.8437C347.981 31.6563 349.333 34.1094 351 37.2031C352.667 40.2969 354.145 43.2187 355.434 45.9687H356.188C355.843 38.5 355.67 30.3438 355.67 21.5V12.7813C355.67 10.75 355.591 9.28124 355.434 8.375C355.277 7.46876 355.025 6.78128 354.679 6.3125C354.365 5.84372 353.924 5.45312 353.359 5.14064C352.824 4.82812 351.912 4.48437 350.623 4.10937V1.01562H368.453ZM382.84 49.2031C383.626 52.9219 384.931 55.7031 386.755 57.5469C388.61 59.3594 391.315 60.2654 394.868 60.2654C396.723 60.2654 398.39 59.9534 399.868 59.3282C401.346 58.7031 402.525 57.7031 403.406 56.3281C404.318 54.9219 404.773 53.1719 404.773 51.0781C404.773 49.1406 404.412 47.4687 403.688 46.0625C402.965 44.625 401.802 43.2656 400.198 41.9844C398.594 40.7031 396.362 39.3438 393.5 37.9063C391.047 36.6875 388.83 35.4219 386.849 34.1094C384.868 32.7969 383.17 31.3594 381.755 29.7969C380.371 28.2031 379.286 26.4687 378.5 24.5937C377.746 22.7187 377.368 20.6094 377.368 18.2656C377.368 14.4219 378.327 11.1562 380.245 8.46872C382.163 5.78126 384.931 3.75 388.547 2.375C392.195 0.968747 396.409 0.265625 401.189 0.265625C403.987 0.265625 406.66 0.421871 409.208 0.734369C411.755 1.01562 414.663 1.53125 417.934 2.28125V15.875H411.472C410.874 13.4062 410.104 11.4531 409.16 10.0156C408.248 8.5469 407.1 7.46876 405.717 6.78128C404.333 6.09374 402.588 5.75 400.481 5.75C398.689 5.75 397.085 6.06248 395.67 6.6875C394.254 7.31252 393.138 8.25002 392.321 9.5C391.503 10.7187 391.094 12.2031 391.094 13.9531C391.094 15.7656 391.44 17.3437 392.132 18.6875C392.856 20 394.05 21.2969 395.717 22.5781C397.384 23.8281 399.805 25.2656 402.981 26.8906C406.849 28.8906 409.884 30.8594 412.085 32.7969C414.318 34.7031 415.953 36.7969 416.991 39.0781C418.059 41.3281 418.594 43.9531 418.594 46.9531C418.594 50.7969 417.698 54.1406 415.906 56.9844C414.113 59.7968 411.503 61.9688 408.076 63.5C404.648 65 400.685 65.75 396.188 65.75C392.981 65.75 389.632 65.5628 386.142 65.1872C382.683 64.844 379.428 64.328 376.377 63.6404V49.2031H382.84ZM438.689 65V61.9064C440.01 61.6874 441.047 61.406 441.802 61.0628C442.588 60.6872 443.17 60.1718 443.547 59.5154C443.925 58.8594 444.161 58.0312 444.255 57.0313C444.349 56 444.396 54.7344 444.396 53.2344V6.5H440.575C438.689 6.5 437.242 6.71876 436.236 7.15628C435.23 7.59374 434.349 8.28128 433.595 9.21872C432.871 10.1563 432.242 11.4219 431.708 13.0156C431.173 14.5781 430.733 16.0625 430.387 17.4687H423.925V1.01562H479.443V17.4687H472.981C472.383 15.3438 471.912 13.7812 471.566 12.7813C471.22 11.7813 470.827 10.9375 470.387 10.25C469.978 9.53126 469.538 8.9375 469.066 8.46872C468.594 8 468.091 7.625 467.557 7.34372C467.022 7.0625 466.346 6.8594 465.528 6.73436C464.742 6.57812 463.704 6.5 462.415 6.5H459.019V53.2344C459.019 54.8906 459.066 56.1562 459.16 57.0313C459.255 57.875 459.428 58.5625 459.679 59.0936C459.931 59.6252 460.229 60.0626 460.575 60.4064C460.953 60.719 461.456 61.0154 462.085 61.2968C462.745 61.547 463.626 61.7498 464.726 61.9064V65H438.689ZM533.925 1.01562V15.9219H527.462C526.425 12.9531 525.544 10.9531 524.821 9.92186C524.097 8.85938 523.233 8.03126 522.226 7.4375C521.22 6.81248 519.506 6.5 517.085 6.5H506.802V29H513.028C514.412 29 515.497 28.8125 516.283 28.4375C517.069 28.0312 517.714 27.375 518.217 26.4687C518.751 25.5625 519.255 24.1563 519.727 22.25H525.057V41.2813H519.727C519.286 39.4687 518.798 38.0937 518.264 37.1563C517.73 36.1875 517.085 35.5 516.33 35.0937C515.607 34.6875 514.506 34.4844 513.028 34.4844H506.802V59.5154H517.038C518.139 59.5154 519.066 59.453 519.821 59.3282C520.575 59.1716 521.252 58.9219 521.849 58.5781C522.447 58.2344 523.013 57.7656 523.547 57.1719C524.114 56.5781 524.601 55.9375 525.01 55.25C525.45 54.5625 525.906 53.6563 526.378 52.5313C526.849 51.4063 527.368 49.8594 527.934 47.8906H534.396L533.5 65H487.132V61.9064C488.296 61.5938 489.208 61.2656 489.868 60.9218C490.56 60.5468 491.063 60.047 491.378 59.4218C491.723 58.7656 491.943 57.9531 492.037 56.9844C492.132 55.9844 492.179 54.7344 492.179 53.2344V12.8281C492.179 11.3594 492.132 10.125 492.037 9.125C491.975 8.12498 491.771 7.31252 491.425 6.6875C491.11 6.06248 490.607 5.5625 489.915 5.1875C489.255 4.78125 488.327 4.42187 487.132 4.10937V1.01562H533.925ZM562.651 53.2344C562.651 54.3281 562.683 55.3437 562.745 56.2813C562.808 57.2187 562.934 57.9844 563.123 58.5781C563.311 59.1716 563.579 59.672 563.925 60.0782C564.302 60.4844 564.805 60.8438 565.434 61.1564C566.063 61.4372 566.834 61.6874 567.745 61.9064V65H542.982V61.9064C544.145 61.5938 545.057 61.2656 545.717 60.9218C546.409 60.5468 546.912 60.047 547.227 59.4218C547.573 58.7656 547.792 57.9531 547.886 56.9844C547.981 55.9844 548.028 54.7344 548.028 53.2344V12.7813C548.028 11.2813 547.981 10.0469 547.886 9.07814C547.824 8.10938 547.62 7.31252 547.274 6.6875C546.959 6.03128 546.456 5.51564 545.764 5.14064C545.104 4.76563 544.176 4.42187 542.982 4.10937V1.01562H567.745V4.10937C566.456 4.45312 565.497 4.82812 564.868 5.23436C564.271 5.60936 563.815 6.07814 563.5 6.64064C563.186 7.20314 562.965 7.93748 562.84 8.84372C562.714 9.75002 562.651 11.0781 562.651 12.8281V53.2344ZM633.923 1.01562V4.10937C632.667 4.51562 631.768 4.85937 631.236 5.14064C630.735 5.42186 630.294 5.79686 629.914 6.26564C629.57 6.73436 629.304 7.4531 629.111 8.42186C628.924 9.35936 628.827 10.8125 628.827 12.7813V65H616.848L595.623 28.5313C592.761 23.5938 590.654 19.7187 589.302 16.9063H588.877C589.192 23.625 589.349 30.7188 589.349 38.1875V53.2813C589.349 55.625 589.459 57.2656 589.679 58.2031C589.931 59.1404 590.355 59.8904 590.953 60.4532C591.582 60.9842 592.745 61.469 594.444 61.9064V65H576.613V61.9064C577.777 61.5938 578.689 61.25 579.349 60.875C580.041 60.5 580.544 60.0002 580.859 59.375C581.205 58.7187 581.424 57.9063 581.519 56.9375C581.613 55.9687 581.66 54.75 581.66 53.2813V12.7344C581.66 10.3906 581.551 8.78126 581.33 7.90628C581.142 6.99998 580.717 6.24998 580.057 5.65628C579.428 5.06252 578.28 4.54687 576.613 4.10937V1.01562H595.717L612.417 29.8437C613.455 31.6563 614.808 34.1094 616.474 37.2031C618.14 40.2969 619.614 43.2187 620.906 45.9687H621.66C621.316 38.5 621.141 30.3438 621.141 21.5V12.7813C621.141 10.75 621.063 9.28124 620.906 8.375C620.749 7.46876 620.495 6.78128 620.151 6.3125C619.837 5.84372 619.396 5.45312 618.829 5.14064C618.297 4.82812 617.386 4.48437 616.094 4.10937V1.01562H633.923Z" fill="white"/>
</svg>
