<svg width="20" height="21" viewBox="0 0 20 21" fill="none" xmlns="http://www.w3.org/2000/svg">
<path d="M15.4032 14.4728C14.8729 14.5996 14.3194 14.6667 13.7503 14.6667C9.83833 14.6667 6.66699 11.4953 6.66699 7.58335C6.66699 7.18045 6.70063 6.78541 6.76525 6.40088C6.73509 6.42989 6.70393 6.4566 6.67111 6.48151C6.43727 6.65903 6.14604 6.72493 5.56357 6.85672L5.03328 6.9767C2.98354 7.44047 1.95868 7.67235 1.71484 8.45645C1.47101 9.24059 2.1697 10.0576 3.56708 11.6916L3.92859 12.1143C4.32568 12.5787 4.52423 12.8108 4.61354 13.0981C4.70287 13.3853 4.67285 13.6951 4.61281 14.3147L4.55816 14.8787C4.34689 17.0588 4.24126 18.1489 4.87962 18.6335C5.51797 19.1181 6.47755 18.6763 8.39674 17.7927L8.89324 17.564C9.43858 17.3129 9.71124 17.1874 10.0003 17.1874C10.2894 17.1874 10.5621 17.3129 11.1074 17.564L11.6039 17.7927C13.5231 18.6763 14.4827 19.1181 15.1211 18.6335C15.7594 18.1489 15.6537 17.0588 15.4425 14.8787L15.4032 14.4728Z" fill="#FFB800"/>
<path opacity="0.5" d="M7.62796 5.00694L7.35488 5.49682C7.05493 6.03491 6.90495 6.30395 6.67111 6.48147C6.70393 6.45655 6.73509 6.42984 6.76525 6.40083C6.70063 6.78537 6.66699 7.1804 6.66699 7.5833C6.66699 11.4953 9.83828 14.6666 13.7504 14.6666C14.3194 14.6666 14.8729 14.5995 15.4032 14.4728L15.3879 14.3146C15.3278 13.695 15.2978 13.3853 15.3871 13.098C15.4764 12.8108 15.6749 12.5786 16.072 12.1143L16.4336 11.6915C17.8309 10.0575 18.5296 9.24046 18.2858 8.4564C18.0419 7.67231 17.0171 7.44043 14.9674 6.97665L14.4371 6.85667C13.8546 6.72488 13.5634 6.65898 13.3295 6.48147C13.0957 6.30395 12.9457 6.03491 12.6458 5.49683L12.3727 5.00693C11.3171 3.11339 10.7894 2.16663 10.0004 2.16663C9.21128 2.16663 8.68353 3.1134 7.62796 5.00694Z" fill="#FFB800"/>
</svg>
