<svg width="62" height="62" viewBox="0 0 62 62" fill="none" xmlns="http://www.w3.org/2000/svg">
<path d="M18.0837 46.5C18.0837 47.9268 16.927 49.0834 15.5003 49.0834C14.0736 49.0834 12.917 47.9268 12.917 46.5C12.917 45.0732 14.0736 43.9167 15.5003 43.9167C16.927 43.9167 18.0837 45.0732 18.0837 46.5Z" fill="#CFAF6C"/>
<path opacity="0.4" d="M25.8337 15.5V46.5C25.8337 52.2069 21.2073 56.8334 15.5003 56.8334C9.79338 56.8334 5.16699 52.2069 5.16699 46.5V15.5C5.16699 9.79308 9.79338 5.16669 15.5003 5.16669C21.2073 5.16669 25.8337 9.79308 25.8337 15.5Z" fill="#CFAF6C"/>
<path opacity="0.7" d="M23.8896 52.5339L34.1564 42.2669L49.2382 26.5357C53.17 22.4346 53.1016 15.9427 49.0842 11.9254C45.0064 7.84746 38.3947 7.84746 34.3166 11.9254L25.8335 20.4087V46.5C25.8335 48.7521 25.1129 50.8364 23.8896 52.5339Z" fill="#CFAF6C"/>
<path d="M34.1563 42.2677L23.8895 52.5347C25.1104 50.8403 25.8305 48.761 25.8333 46.5137C25.8259 52.2144 21.2023 56.8334 15.5 56.8334H46.2401C51.9472 56.8334 56.5734 52.2069 56.5734 46.5C56.5734 40.7932 51.9472 36.1667 46.2401 36.1667H40.0055L34.1563 42.2677Z" fill="#CFAF6C"/>
</svg>
