<svg width="62" height="62" viewBox="0 0 62 62" fill="none" xmlns="http://www.w3.org/2000/svg">
<path d="M21.7579 53.2635C26.2932 55.6437 28.5609 56.8336 31.0003 56.8336V31.0003L6.81521 18.2713C6.77959 18.3285 6.74463 18.3863 6.71028 18.4447C5.16699 21.0655 5.16699 24.3267 5.16699 30.8492V31.1514C5.16699 37.6738 5.16699 40.9353 6.71028 43.5561C8.25353 46.1769 11.0328 47.6354 16.5912 50.5522L21.7579 53.2635Z" fill="#CFAF6C"/>
<path opacity="0.7" d="M45.4087 11.4481L40.242 8.73678C35.7067 6.35673 33.4391 5.16669 30.9996 5.16669C28.5602 5.16669 26.2925 6.35673 21.7572 8.73678L16.5905 11.4481C11.1558 14.3001 8.37791 15.7579 6.81445 18.271L30.9996 31L55.1848 18.271C53.6211 15.7579 50.8432 14.3001 45.4087 11.4481Z" fill="#CFAF6C"/>
<path opacity="0.5" d="M55.29 18.4447C55.2557 18.3863 55.2208 18.3285 55.1852 18.2713L31 31.0003V56.8336C33.4394 56.8336 35.7071 55.6437 40.2424 53.2635L45.4091 50.5522C50.9676 47.6354 53.7468 46.1769 55.29 43.5561C56.8333 40.9353 56.8333 37.6738 56.8333 31.1514V30.8492C56.8333 24.3267 56.8333 21.0655 55.29 18.4447Z" fill="#CFAF6C"/>
</svg>
