<svg width="62" height="62" viewBox="0 0 62 62" fill="none" xmlns="http://www.w3.org/2000/svg">
<path opacity="0.5" d="M56.8337 31C56.8337 45.2673 45.2676 56.8334 31.0003 56.8334C16.733 56.8334 5.16699 45.2673 5.16699 31C5.16699 16.7327 16.733 5.16669 31.0003 5.16669C45.2676 5.16669 56.8337 16.7327 56.8337 31Z" fill="#CFAF6C"/>
<path d="M23.8955 31C23.8955 29.93 24.763 29.0625 25.833 29.0625H29.0622V25.8333C29.0622 24.7633 29.9297 23.8958 30.9997 23.8958C32.0697 23.8958 32.9372 24.7633 32.9372 25.8333V29.0625H36.1663C37.2364 29.0625 38.1038 29.93 38.1038 31C38.1038 32.07 37.2364 32.9375 36.1663 32.9375H32.9372V36.1666C32.9372 37.2367 32.0697 38.1041 30.9997 38.1041C29.9297 38.1041 29.0622 37.2367 29.0622 36.1666V32.9375H25.833C24.763 32.9375 23.8955 32.07 23.8955 31Z" fill="#CFAF6C"/>
<path d="M5.23855 32.9375C5.19112 32.2979 5.16699 31.6518 5.16699 31C5.16699 30.3482 5.19112 29.7021 5.23855 29.0625H12.917C13.987 29.0625 14.8545 29.93 14.8545 31C14.8545 32.07 13.987 32.9375 12.917 32.9375H5.23855Z" fill="#CFAF6C"/>
<path d="M32.9375 56.7618C32.2979 56.8093 31.6518 56.8333 31 56.8333C30.3482 56.8333 29.7021 56.8093 29.0625 56.7618V49.0833C29.0625 48.0133 29.93 47.1458 31 47.1458C32.07 47.1458 32.9375 48.0133 32.9375 49.0833V56.7618Z" fill="#CFAF6C"/>
<path d="M56.7614 29.0625C56.809 29.7021 56.833 30.3482 56.833 31C56.833 31.6518 56.809 32.2979 56.7614 32.9375H49.083C48.013 32.9375 47.1455 32.07 47.1455 31C47.1455 29.93 48.013 29.0625 49.083 29.0625H56.7614Z" fill="#CFAF6C"/>
<path d="M32.9375 5.23825V12.9167C32.9375 13.9867 32.07 14.8542 31 14.8542C29.93 14.8542 29.0625 13.9867 29.0625 12.9167V5.23825C29.7021 5.19082 30.3482 5.16669 31 5.16669C31.6518 5.16669 32.2979 5.19082 32.9375 5.23825Z" fill="#CFAF6C"/>
</svg>
