<svg width="62" height="62" viewBox="0 0 62 62" fill="none" xmlns="http://www.w3.org/2000/svg">
<path opacity="0.5" d="M16.0741 11.8861C17.2225 11.1187 18.4284 10.4531 19.6778 9.89356C23.2219 8.30644 24.9938 7.51287 27.3514 9.04013C29.7087 10.5674 29.7087 13.0727 29.7087 18.0834V21.9584C29.7087 26.8295 29.7087 29.265 31.222 30.7784C32.7353 32.2917 35.1709 32.2917 40.042 32.2917H43.917C48.9276 32.2917 51.4329 32.2917 52.9602 34.649C54.4875 37.0065 53.6939 38.7784 52.1067 42.3225C51.5471 43.5721 50.8817 44.778 50.1144 45.9263C47.4177 49.9622 43.5848 53.1077 39.1004 54.9653C34.616 56.8228 29.6815 57.3087 24.9208 56.3619C20.1602 55.4148 15.7873 53.0774 12.3551 49.6452C8.92288 46.213 6.58551 41.8402 5.63856 37.0796C4.69161 32.3188 5.17764 27.3844 7.03514 22.9C8.89263 18.4156 12.0382 14.5827 16.0741 11.8861Z" fill="#CFAF6C"/>
<path d="M55.4025 18.2616C53.3053 12.9381 49.0622 8.69494 43.7387 6.59776C39.7565 5.02893 36.167 8.63648 36.167 12.9167V23.25C36.167 24.6768 37.3236 25.8333 38.7503 25.8333H49.0837C53.364 25.8333 56.9713 22.2439 55.4025 18.2616Z" fill="#CFAF6C"/>
</svg>
