<svg width="160" height="19" viewBox="0 0 160 19" fill="none" xmlns="http://www.w3.org/2000/svg">
<g clip-path="url(#clip0_1_453)">
<path d="M14.245 13.8828C14.5516 14.3516 14.8072 14.7266 15.0115 15.0078C15.2238 15.2813 15.4085 15.4961 15.5658 15.6524C15.7231 15.8085 15.8763 15.9297 16.0257 16.0157C16.183 16.0937 16.3874 16.1679 16.6389 16.2383V17H10.2474V16.2266C10.5147 16.1874 10.6955 16.125 10.7899 16.0391C10.8842 15.9453 10.9314 15.8241 10.9314 15.6758C10.9314 15.5508 10.9117 15.4297 10.8724 15.3125C10.841 15.1875 10.7584 15.0078 10.6248 14.7734C10.4911 14.5391 10.2199 14.1094 9.81108 13.4844L8.00684 10.7187C7.7867 10.3828 7.5941 10.1211 7.42901 9.93359C7.27178 9.74609 7.11061 9.61328 6.94551 9.53516C6.78829 9.44922 6.56815 9.40625 6.28513 9.40625H6.04929V14.0586C6.04929 14.332 6.05715 14.5859 6.07288 14.8203C6.08859 15.0547 6.12005 15.2461 6.16722 15.3945C6.21439 15.5429 6.28121 15.668 6.36768 15.7695C6.46202 15.8711 6.58781 15.9609 6.74504 16.0391C6.90228 16.1093 7.09489 16.1718 7.32287 16.2266V17H1.13184V16.2266C1.42272 16.1484 1.6507 16.0664 1.81579 15.9804C1.98876 15.8867 2.11454 15.7617 2.19315 15.6054C2.27964 15.4414 2.33467 15.2383 2.35825 14.9961C2.38183 14.7461 2.39363 14.4336 2.39363 14.0586V3.95703C2.39363 3.58985 2.38183 3.28125 2.35825 3.03125C2.34252 2.78124 2.29143 2.57813 2.20495 2.42187C2.12633 2.26562 2.00055 2.14062 1.82759 2.04687C1.66249 1.94531 1.43058 1.85547 1.13184 1.77734V1.00391H7.32287V1.77734C6.99268 1.86328 6.74897 1.95703 6.59175 2.05859C6.44237 2.16015 6.32838 2.28125 6.24975 2.42187C6.17901 2.5625 6.12791 2.74218 6.09646 2.96093C6.06501 3.17969 6.04929 3.51171 6.04929 3.95703V8.12891H6.29694C6.65857 8.12891 6.94551 8.08985 7.15778 8.01171C7.37004 7.93359 7.58624 7.79297 7.80637 7.58984C8.03436 7.38672 8.46675 6.91406 9.10353 6.17187C9.74818 5.42187 10.212 4.84766 10.495 4.44921C10.7859 4.04297 10.9825 3.71093 11.0847 3.45312C11.1947 3.1875 11.2498 2.92578 11.2498 2.66796C11.2498 2.39453 11.1554 2.17968 10.9667 2.02343C10.7859 1.86719 10.5265 1.78516 10.1884 1.77734V1.00391H16.2144V1.80078C15.9157 1.85547 15.6601 1.9375 15.4479 2.04687C15.2357 2.15625 14.9919 2.33594 14.7167 2.58593C14.4416 2.82812 14.0917 3.1875 13.6672 3.66407L10.1295 7.60157L14.245 13.8828ZM27.6295 3.94532C27.6295 3.35937 27.602 2.95313 27.5469 2.72657C27.4998 2.49218 27.4014 2.30468 27.2521 2.16407C27.1027 2.02343 26.8118 1.89453 26.3795 1.77734V1.00391H31.5682V1.77734C31.2852 1.85547 31.061 1.94141 30.8961 2.03516C30.7309 2.12109 30.605 2.24609 30.5187 2.41016C30.4322 2.5664 30.3771 2.76953 30.3536 3.01953C30.33 3.26172 30.3181 3.57032 30.3181 3.94532V11.2695C30.3181 12.2383 30.2396 13.0508 30.0823 13.707C29.925 14.3555 29.6814 14.9023 29.3512 15.3477C29.021 15.7929 28.6082 16.1523 28.113 16.4258C27.6256 16.6992 27.0752 16.8946 26.462 17.0117C25.8488 17.1288 25.161 17.1875 24.3984 17.1875C23.282 17.1875 22.3386 17.0742 21.5682 16.8476C20.7976 16.6133 20.1688 16.2656 19.6814 15.8046C19.2019 15.3359 18.8441 14.7695 18.6082 14.1055C18.3803 13.4414 18.2663 12.5859 18.2663 11.5391V3.95703C18.2663 3.58985 18.2546 3.28125 18.2309 3.03125C18.2152 2.78124 18.1641 2.57813 18.0776 2.42187C17.999 2.26562 17.8731 2.14062 17.7003 2.04687C17.5352 1.94531 17.3032 1.85547 17.0044 1.77734V1.00391H23.1955V1.77734C22.8731 1.86328 22.6334 1.95703 22.4761 2.05859C22.3269 2.15234 22.2127 2.26953 22.1343 2.41016C22.0556 2.55078 22.0005 2.73437 21.9691 2.96093C21.9377 3.1875 21.9219 3.51953 21.9219 3.95703V11.6914C21.9219 12.3086 21.9613 12.8711 22.0399 13.3789C22.1184 13.8867 22.26 14.3242 22.4644 14.6914C22.6766 15.0508 22.9675 15.3281 23.337 15.5234C23.7065 15.7187 24.1821 15.8163 24.7638 15.8163C25.5658 15.8163 26.1632 15.6563 26.5564 15.3359C26.9495 15.0156 27.2247 14.5703 27.3818 14C27.5469 13.4219 27.6295 12.5625 27.6295 11.4219V3.94532ZM45.2946 1.36719V4.76562H43.6908C43.5021 3.88281 43.2034 3.23438 42.7946 2.82032C42.3857 2.39843 41.8512 2.1875 41.1909 2.1875C39.9486 2.1875 39.0093 2.78124 38.3724 3.96875C37.7356 5.14844 37.4173 6.90234 37.4173 9.23046C37.4173 11.3945 37.7081 13.0352 38.2899 14.1523C38.8716 15.2617 39.7246 15.8163 40.8488 15.8163C41.4227 15.8163 41.8905 15.7226 42.2521 15.5351C42.6138 15.3398 42.9007 15.0508 43.113 14.668C43.333 14.2851 43.5217 13.7461 43.679 13.0508H45.2946V16.6016C44.4298 16.8047 43.6398 16.9532 42.9243 17.0468C42.2088 17.1407 41.466 17.1875 40.6955 17.1875C39.0603 17.1875 37.7238 16.8945 36.6861 16.3086C35.6562 15.7226 34.8937 14.8398 34.3984 13.6602C33.9109 12.4727 33.6672 10.9727 33.6672 9.16016C33.6672 7.46484 33.9542 5.99219 34.5281 4.74218C35.1098 3.48437 35.9628 2.51562 37.087 1.83594C38.2112 1.15625 39.5555 0.816406 41.1201 0.816406C41.914 0.816406 42.6334 0.859374 43.2781 0.945312C43.9228 1.03125 44.5949 1.17187 45.2946 1.36719ZM61.3323 14.0586C61.3323 14.6601 61.3558 15.0742 61.4031 15.3008C61.458 15.5195 61.5643 15.7031 61.7214 15.8516C61.8787 15.9999 62.1656 16.125 62.5823 16.2266V17H56.4266V16.2266C56.8826 16.1093 57.1774 15.9921 57.3112 15.875C57.4447 15.7578 57.5391 15.5937 57.594 15.3828C57.6491 15.1641 57.6766 14.7227 57.6766 14.0586V9.35937H52.3465V14.0586C52.3465 14.332 52.3543 14.5859 52.37 14.8203C52.3857 15.0547 52.4173 15.2461 52.4644 15.3945C52.5116 15.5429 52.5783 15.668 52.6648 15.7695C52.7592 15.8711 52.885 15.9609 53.0422 16.0391C53.1995 16.1093 53.3921 16.1718 53.62 16.2266V17H47.429V16.2266C47.7199 16.1484 47.9478 16.0664 48.113 15.9804C48.2859 15.8867 48.4117 15.7617 48.4903 15.6054C48.5768 15.4414 48.6319 15.2383 48.6555 14.9961C48.679 14.7461 48.6908 14.4336 48.6908 14.0586V3.95703C48.6908 3.58985 48.679 3.28125 48.6555 3.03125C48.6398 2.78124 48.5886 2.57813 48.5021 2.42187C48.4235 2.26562 48.2977 2.14062 48.1247 2.04687C47.9596 1.94531 47.7278 1.85547 47.429 1.77734V1.00391H53.62V1.77734C53.2034 1.89453 52.9164 2.02343 52.7592 2.16407C52.6099 2.30468 52.5038 2.49218 52.4408 2.72657C52.3779 2.95313 52.3465 3.36719 52.3465 3.96875V7.88282H57.6766V3.96875C57.6766 3.375 57.6491 2.96484 57.594 2.73828C57.5469 2.50391 57.4447 2.31641 57.2875 2.17578C57.1382 2.02734 56.8512 1.89453 56.4266 1.77734V1.00391H62.5823V1.77734C62.2364 1.87109 61.9848 1.97266 61.8275 2.08203C61.6704 2.1836 61.5563 2.31641 61.4856 2.48046C61.4227 2.64453 61.3795 2.82812 61.3558 3.03125C61.3401 3.23438 61.3323 3.54687 61.3323 3.96875V14.0586ZM76.5564 1.00391V4.73046H74.9407C74.6814 3.98828 74.4612 3.48828 74.2804 3.23046C74.0995 2.96484 73.8834 2.75781 73.6318 2.60937C73.3803 2.45312 72.9518 2.375 72.3465 2.375H69.7758V8H71.3323C71.6783 8 71.9495 7.95312 72.146 7.85937C72.3426 7.75781 72.5038 7.59375 72.6295 7.36718C72.7631 7.14062 72.889 6.78906 73.0069 6.3125H74.3394V11.0703H73.0069C72.8968 10.6172 72.7749 10.2734 72.6413 10.0391C72.5077 9.79688 72.3465 9.625 72.1578 9.52343C71.977 9.42188 71.7018 9.37109 71.3323 9.37109H69.7758V15.6288H72.3347C72.6099 15.6288 72.8417 15.6132 73.0304 15.582C73.2191 15.5429 73.3881 15.4805 73.5376 15.3945C73.6869 15.3086 73.8284 15.1914 73.962 15.043C74.1036 14.8945 74.2254 14.7344 74.3276 14.5625C74.4376 14.3906 74.5516 14.1641 74.6696 13.8828C74.7875 13.6016 74.9172 13.2148 75.0588 12.7227H76.6743L76.4502 17H64.8583V16.2266C65.1492 16.1484 65.3771 16.0664 65.5423 15.9804C65.7152 15.8867 65.841 15.7617 65.9196 15.6054C66.0061 15.4414 66.0611 15.2383 66.0846 14.9961C66.1083 14.7461 66.1201 14.4336 66.1201 14.0586V3.95703C66.1201 3.58985 66.1083 3.28125 66.0846 3.03125C66.0689 2.78124 66.0179 2.57813 65.9314 2.42187C65.8527 2.26562 65.727 2.14062 65.554 2.04687C65.3889 1.94531 65.157 1.85547 64.8583 1.77734V1.00391H76.5564ZM93.113 1.00391V1.77734C92.7986 1.87891 92.5744 1.96484 92.4408 2.03516C92.3151 2.10546 92.2049 2.19921 92.1105 2.31641C92.0241 2.43359 91.9573 2.61327 91.9101 2.85546C91.863 3.08984 91.8395 3.45312 91.8395 3.94532V17H88.8441L83.5376 7.88282C82.8221 6.64844 82.2953 5.67968 81.9574 4.97657H81.8512C81.9297 6.65625 81.9691 8.42969 81.9691 10.2969V14.0703C81.9691 14.6562 81.9966 15.0664 82.0517 15.3008C82.1145 15.5351 82.2207 15.7226 82.37 15.8633C82.5273 15.996 82.8182 16.1172 83.2426 16.2266V17H78.7851V16.2266C79.076 16.1484 79.3041 16.0625 79.469 15.9687C79.642 15.875 79.7679 15.75 79.8464 15.5937C79.9329 15.4297 79.988 15.2266 80.0115 14.9844C80.0351 14.7422 80.0469 14.4375 80.0469 14.0703V3.93359C80.0469 3.34766 80.0194 2.94531 79.9644 2.72657C79.9172 2.49999 79.8111 2.31249 79.646 2.16407C79.4888 2.01563 79.2019 1.88672 78.7851 1.77734V1.00391H83.5611L87.7356 8.21093C87.9951 8.66406 88.333 9.27734 88.7498 10.0508C89.1664 10.8242 89.5359 11.5547 89.8582 12.2422H90.0469C89.9605 10.375 89.9172 8.33594 89.9172 6.125V3.94532C89.9172 3.43749 89.8976 3.07031 89.8582 2.84375C89.8189 2.61719 89.756 2.44532 89.6695 2.32812C89.591 2.21093 89.4808 2.11328 89.3394 2.03516C89.2058 1.95703 88.9777 1.87109 88.6555 1.77734V1.00391H93.113ZM96.7096 13.0508C96.9062 13.9805 97.2325 14.6758 97.6885 15.1367C98.1522 15.5898 98.8284 15.8163 99.7167 15.8163C100.181 15.8163 100.597 15.7383 100.967 15.582C101.336 15.4258 101.631 15.1758 101.851 14.832C102.079 14.4805 102.193 14.043 102.193 13.5195C102.193 13.0352 102.103 12.6172 101.922 12.2656C101.741 11.9063 101.45 11.5664 101.049 11.2461C100.648 10.9258 100.09 10.5859 99.3747 10.2266C98.7616 9.92187 98.2073 9.60546 97.7121 9.27734C97.2167 8.94921 96.7922 8.58984 96.4384 8.19921C96.0926 7.80078 95.8213 7.36718 95.6248 6.89843C95.4361 6.42968 95.3418 5.90234 95.3418 5.31641C95.3418 4.35546 95.5815 3.53906 96.061 2.86718C96.5406 2.19531 97.2325 1.6875 98.1365 1.34375C99.0485 0.992187 100.102 0.816406 101.297 0.816406C101.997 0.816406 102.665 0.855468 103.302 0.933592C103.938 1.00391 104.666 1.13281 105.483 1.32031V4.71875H103.868C103.718 4.10156 103.526 3.61328 103.29 3.25391C103.062 2.88672 102.775 2.61719 102.429 2.44532C102.083 2.27343 101.647 2.1875 101.12 2.1875C100.672 2.1875 100.271 2.26562 99.9172 2.42187C99.5634 2.57813 99.2843 2.8125 99.0799 3.125C98.8755 3.42968 98.7733 3.80078 98.7733 4.23828C98.7733 4.6914 98.8598 5.08593 99.0328 5.42187C99.2136 5.75 99.5124 6.07422 99.929 6.39453C100.346 6.70703 100.951 7.0664 101.745 7.47266C102.712 7.97265 103.471 8.46485 104.021 8.94921C104.579 9.42578 104.988 9.94922 105.247 10.5195C105.515 11.082 105.648 11.7383 105.648 12.4883C105.648 13.4492 105.424 14.2851 104.976 14.9961C104.528 15.6992 103.876 16.2422 103.019 16.625C102.162 17 101.171 17.1875 100.047 17.1875C99.245 17.1875 98.4078 17.1407 97.5352 17.0468C96.6704 16.961 95.8567 16.832 95.0941 16.6601V13.0508H96.7096ZM110.672 17V16.2266C111.002 16.1718 111.261 16.1015 111.45 16.0157C111.647 15.9218 111.792 15.7929 111.887 15.6288C111.981 15.4648 112.04 15.2578 112.063 15.0078C112.087 14.75 112.099 14.4336 112.099 14.0586V2.375H111.144C110.672 2.375 110.31 2.42969 110.059 2.53907C109.807 2.64843 109.587 2.82032 109.398 3.05468C109.218 3.28907 109.06 3.60546 108.927 4.00391C108.793 4.39452 108.683 4.76562 108.596 5.11718H106.981V1.00391H120.861V5.11718H119.245C119.096 4.58594 118.978 4.19531 118.891 3.94532C118.805 3.69531 118.706 3.48437 118.596 3.3125C118.494 3.13281 118.384 2.98437 118.266 2.86718C118.148 2.75 118.023 2.65625 117.889 2.58593C117.755 2.51562 117.586 2.46485 117.382 2.43359C117.185 2.39453 116.926 2.375 116.604 2.375H115.754V14.0586C115.754 14.4726 115.766 14.7891 115.79 15.0078C115.813 15.2187 115.857 15.3906 115.92 15.5234C115.982 15.6563 116.057 15.7656 116.144 15.8516C116.238 15.9297 116.364 16.0038 116.521 16.0742C116.686 16.1367 116.906 16.1874 117.181 16.2266V17H110.672ZM134.481 1.00391V4.73046H132.865C132.606 3.98828 132.386 3.48828 132.205 3.23046C132.024 2.96484 131.808 2.75781 131.556 2.60937C131.305 2.45312 130.876 2.375 130.271 2.375H127.7V8H129.257C129.603 8 129.874 7.95312 130.071 7.85937C130.267 7.75781 130.428 7.59375 130.554 7.36718C130.688 7.14062 130.814 6.78906 130.931 6.3125H132.264V11.0703H130.931C130.821 10.6172 130.699 10.2734 130.566 10.0391C130.432 9.79688 130.271 9.625 130.082 9.52343C129.902 9.42188 129.626 9.37109 129.257 9.37109H127.7V15.6288H130.259C130.534 15.6288 130.766 15.6132 130.955 15.582C131.144 15.5429 131.313 15.4805 131.462 15.3945C131.611 15.3086 131.753 15.1914 131.887 15.043C132.028 14.8945 132.15 14.7344 132.252 14.5625C132.362 14.3906 132.476 14.1641 132.594 13.8828C132.712 13.6016 132.842 13.2148 132.983 12.7227H134.599L134.375 17H122.783V16.2266C123.074 16.1484 123.302 16.0664 123.467 15.9804C123.64 15.8867 123.765 15.7617 123.844 15.6054C123.931 15.4414 123.986 15.2383 124.009 14.9961C124.033 14.7461 124.045 14.4336 124.045 14.0586V3.95703C124.045 3.58985 124.033 3.28125 124.009 3.03125C123.993 2.78124 123.942 2.57813 123.856 2.42187C123.777 2.26562 123.652 2.14062 123.479 2.04687C123.313 1.94531 123.082 1.85547 122.783 1.77734V1.00391H134.481ZM141.663 14.0586C141.663 14.332 141.67 14.5859 141.686 14.8203C141.702 15.0547 141.733 15.2461 141.78 15.3945C141.828 15.5429 141.894 15.668 141.981 15.7695C142.075 15.8711 142.201 15.9609 142.358 16.0391C142.516 16.1093 142.708 16.1718 142.936 16.2266V17H136.745V16.2266C137.036 16.1484 137.264 16.0664 137.429 15.9804C137.602 15.8867 137.728 15.7617 137.806 15.6054C137.893 15.4414 137.948 15.2383 137.971 14.9961C137.995 14.7461 138.007 14.4336 138.007 14.0586V3.94532C138.007 3.57032 137.995 3.26172 137.971 3.01953C137.956 2.77734 137.905 2.57813 137.818 2.42187C137.74 2.25782 137.614 2.12891 137.441 2.03516C137.276 1.94141 137.044 1.85547 136.745 1.77734V1.00391H142.936V1.77734C142.614 1.86328 142.374 1.95703 142.217 2.05859C142.067 2.15234 141.953 2.26953 141.875 2.41016C141.796 2.55078 141.741 2.73437 141.71 2.96093C141.678 3.1875 141.663 3.51953 141.663 3.95703V14.0586ZM159.481 1.00391V1.77734C159.167 1.87891 158.942 1.96484 158.809 2.03516C158.684 2.10546 158.573 2.19921 158.478 2.31641C158.392 2.43359 158.326 2.61327 158.277 2.85546C158.231 3.08984 158.207 3.45312 158.207 3.94532V17H155.212L149.905 7.88282C149.19 6.64844 148.663 5.67968 148.325 4.97657H148.219C148.298 6.65625 148.337 8.42969 148.337 10.2969V14.0703C148.337 14.6562 148.365 15.0664 148.42 15.3008C148.482 15.5351 148.589 15.7226 148.738 15.8633C148.895 15.996 149.186 16.1172 149.611 16.2266V17H145.153V16.2266C145.444 16.1484 145.672 16.0625 145.837 15.9687C146.01 15.875 146.136 15.75 146.214 15.5937C146.301 15.4297 146.356 15.2266 146.38 14.9844C146.403 14.7422 146.415 14.4375 146.415 14.0703V3.93359C146.415 3.34766 146.387 2.94531 146.332 2.72657C146.285 2.49999 146.179 2.31249 146.014 2.16407C145.857 2.01563 145.57 1.88672 145.153 1.77734V1.00391H149.929L154.104 8.21093C154.364 8.66406 154.702 9.27734 155.118 10.0508C155.535 10.8242 155.903 11.5547 156.226 12.2422H156.415C156.329 10.375 156.285 8.33594 156.285 6.125V3.94532C156.285 3.43749 156.265 3.07031 156.226 2.84375C156.187 2.61719 156.124 2.44532 156.038 2.32812C155.959 2.21093 155.849 2.11328 155.707 2.03516C155.574 1.95703 155.346 1.87109 155.023 1.77734V1.00391H159.481Z" fill="white"/>
<path d="M96.7103 13.0508C96.9068 13.9805 97.2331 14.6758 97.6891 15.1367C98.1528 15.5898 98.8291 15.8163 99.7174 15.8163C100.181 15.8163 100.598 15.7383 100.967 15.582C101.337 15.4258 101.632 15.1758 101.852 14.832C102.08 14.4805 102.194 14.043 102.194 13.5195C102.194 13.0352 102.103 12.6172 101.923 12.2656C101.742 11.9063 101.451 11.5664 101.05 11.2461C100.649 10.9258 100.091 10.5859 99.3753 10.2266C98.7622 9.92187 98.2079 9.60546 97.7127 9.27734C97.2173 8.94921 96.7928 8.58984 96.439 8.19921C96.0932 7.80078 95.822 7.36718 95.6254 6.89843C95.4368 6.42968 95.3424 5.90234 95.3424 5.31641C95.3424 4.35546 95.5821 3.53906 96.0617 2.86718C96.5412 2.19531 97.2331 1.6875 98.1371 1.34375C99.0491 0.992187 100.103 0.816406 101.298 0.816406C101.997 0.816406 102.665 0.855468 103.302 0.933592C103.939 1.00391 104.666 1.13281 105.484 1.32031V4.71875H103.868C103.719 4.10156 103.526 3.61328 103.291 3.25391C103.062 2.88672 102.775 2.61719 102.43 2.44532C102.084 2.27343 101.647 2.1875 101.121 2.1875C100.673 2.1875 100.272 2.26562 99.9178 2.42187C99.564 2.57813 99.2849 2.8125 99.0805 3.125C98.8762 3.42968 98.774 3.80078 98.774 4.23828C98.774 4.6914 98.8605 5.08593 99.0334 5.42187C99.2143 5.75 99.513 6.07422 99.9296 6.39453C100.346 6.70703 100.952 7.0664 101.746 7.47266C102.713 7.97265 103.471 8.46485 104.022 8.94921C104.58 9.42578 104.989 9.94922 105.248 10.5195C105.515 11.082 105.649 11.7383 105.649 12.4883C105.649 13.4492 105.425 14.2851 104.977 14.9961C104.529 15.6992 103.876 16.2422 103.019 16.625C102.162 17 101.172 17.1875 100.047 17.1875C99.2457 17.1875 98.4084 17.1407 97.5358 17.0468C96.671 16.961 95.8573 16.832 95.0947 16.6601V13.0508H96.7103Z" fill="#CFAF6C"/>
<path d="M14.245 13.8828C14.5516 14.3516 14.8072 14.7266 15.0115 15.0078C15.2238 15.2813 15.4085 15.4961 15.5658 15.6524C15.7231 15.8085 15.8763 15.9297 16.0257 16.0157C16.183 16.0937 16.3874 16.1679 16.6389 16.2383V17H10.2474V16.2266C10.5147 16.1874 10.6955 16.125 10.7899 16.0391C10.8842 15.9453 10.9314 15.8241 10.9314 15.6758C10.9314 15.5508 10.9117 15.4297 10.8724 15.3125C10.841 15.1875 10.7584 15.0078 10.6248 14.7734C10.4911 14.5391 10.2199 14.1094 9.81108 13.4844L8.00684 10.7187C7.7867 10.3828 7.5941 10.1211 7.42901 9.93359C7.27178 9.74609 7.11061 9.61328 6.94551 9.53516C6.78829 9.44922 6.56815 9.40625 6.28513 9.40625H6.04929V14.0586C6.04929 14.332 6.05715 14.5859 6.07288 14.8203C6.08859 15.0547 6.12005 15.2461 6.16722 15.3945C6.21439 15.5429 6.28121 15.668 6.36768 15.7695C6.46202 15.8711 6.58781 15.9609 6.74504 16.0391C6.90228 16.1093 7.09489 16.1718 7.32287 16.2266V17H1.13184V16.2266C1.42272 16.1484 1.6507 16.0664 1.81579 15.9804C1.98876 15.8867 2.11454 15.7617 2.19315 15.6054C2.27964 15.4414 2.33467 15.2383 2.35825 14.9961C2.38183 14.7461 2.39363 14.4336 2.39363 14.0586V3.95703C2.39363 3.58985 2.38183 3.28125 2.35825 3.03125C2.34252 2.78124 2.29143 2.57813 2.20495 2.42187C2.12633 2.26562 2.00055 2.14062 1.82759 2.04687C1.66249 1.94531 1.43058 1.85547 1.13184 1.77734V1.00391H7.32287V1.77734C6.99268 1.86328 6.74897 1.95703 6.59175 2.05859C6.44237 2.16015 6.32838 2.28125 6.24975 2.42187C6.17901 2.5625 6.12791 2.74218 6.09646 2.96093C6.06501 3.17969 6.04929 3.51171 6.04929 3.95703V8.12891H6.29694C6.65857 8.12891 6.94551 8.08985 7.15778 8.01171C7.37004 7.93359 7.58624 7.79297 7.80637 7.58984C8.03436 7.38672 8.46675 6.91406 9.10353 6.17187C9.74818 5.42187 10.212 4.84766 10.495 4.44921C10.7859 4.04297 10.9825 3.71093 11.0847 3.45312C11.1947 3.1875 11.2498 2.92578 11.2498 2.66796C11.2498 2.39453 11.1554 2.17968 10.9667 2.02343C10.7859 1.86719 10.5265 1.78516 10.1884 1.77734V1.00391H16.2144V1.80078C15.9157 1.85547 15.6601 1.9375 15.4479 2.04687C15.2357 2.15625 14.9919 2.33594 14.7167 2.58593C14.4416 2.82812 14.0917 3.1875 13.6672 3.66407L10.1295 7.60157L14.245 13.8828Z" fill="#CFAF6C"/>
</g>
<defs>
<clipPath id="clip0_1_453">
<rect width="160" height="18" fill="white" transform="translate(0 0.5)"/>
</clipPath>
</defs>
</svg>
