<svg width="160" height="18" viewBox="0 0 160 18" fill="none" xmlns="http://www.w3.org/2000/svg">
<path d="M14.245 13.3828C14.5516 13.8516 14.8072 14.2266 15.0115 14.5078C15.2238 14.7813 15.4085 14.9961 15.5658 15.1524C15.7231 15.3085 15.8763 15.4297 16.0257 15.5157C16.183 15.5937 16.3874 15.6679 16.6389 15.7383V16.5H10.2474V15.7266C10.5147 15.6874 10.6955 15.625 10.7899 15.5391C10.8842 15.4453 10.9314 15.3241 10.9314 15.1758C10.9314 15.0508 10.9117 14.9297 10.8724 14.8125C10.841 14.6875 10.7584 14.5078 10.6248 14.2734C10.4911 14.0391 10.2199 13.6094 9.81108 12.9844L8.00684 10.2187C7.7867 9.88281 7.5941 9.62109 7.42901 9.43359C7.27178 9.24609 7.11061 9.11328 6.94551 9.03516C6.78829 8.94922 6.56815 8.90625 6.28513 8.90625H6.04929V13.5586C6.04929 13.832 6.05715 14.0859 6.07288 14.3203C6.08859 14.5547 6.12005 14.7461 6.16722 14.8945C6.21439 15.0429 6.28121 15.168 6.36768 15.2695C6.46202 15.3711 6.58781 15.4609 6.74504 15.5391C6.90228 15.6093 7.09489 15.6718 7.32287 15.7266V16.5H1.13184V15.7266C1.42272 15.6484 1.6507 15.5664 1.81579 15.4804C1.98876 15.3867 2.11454 15.2617 2.19315 15.1054C2.27964 14.9414 2.33467 14.7383 2.35825 14.4961C2.38183 14.2461 2.39363 13.9336 2.39363 13.5586V3.45703C2.39363 3.08985 2.38183 2.78125 2.35825 2.53125C2.34252 2.28124 2.29143 2.07813 2.20495 1.92187C2.12633 1.76562 2.00055 1.64062 1.82759 1.54687C1.66249 1.44531 1.43058 1.35547 1.13184 1.27734V0.503906H7.32287V1.27734C6.99268 1.36328 6.74897 1.45703 6.59175 1.55859C6.44237 1.66015 6.32838 1.78125 6.24975 1.92187C6.17901 2.0625 6.12791 2.24218 6.09646 2.46093C6.06501 2.67969 6.04929 3.01171 6.04929 3.45703V7.62891H6.29694C6.65857 7.62891 6.94551 7.58985 7.15778 7.51171C7.37004 7.43359 7.58624 7.29297 7.80637 7.08984C8.03436 6.88672 8.46675 6.41406 9.10353 5.67187C9.74818 4.92187 10.212 4.34766 10.495 3.94921C10.7859 3.54297 10.9825 3.21093 11.0847 2.95312C11.1947 2.6875 11.2498 2.42578 11.2498 2.16796C11.2498 1.89453 11.1554 1.67968 10.9667 1.52343C10.7859 1.36719 10.5265 1.28516 10.1884 1.27734V0.503906H16.2144V1.30078C15.9157 1.35547 15.6601 1.4375 15.4479 1.54687C15.2357 1.65625 14.9919 1.83594 14.7167 2.08593C14.4416 2.32812 14.0917 2.6875 13.6672 3.16407L10.1295 7.10157L14.245 13.3828ZM27.6295 3.44532C27.6295 2.85937 27.602 2.45313 27.5469 2.22657C27.4998 1.99218 27.4014 1.80468 27.2521 1.66407C27.1027 1.52343 26.8118 1.39453 26.3795 1.27734V0.503906H31.5682V1.27734C31.2852 1.35547 31.061 1.44141 30.8961 1.53516C30.7309 1.62109 30.605 1.74609 30.5187 1.91016C30.4322 2.0664 30.3771 2.26953 30.3536 2.51953C30.33 2.76172 30.3181 3.07032 30.3181 3.44532V10.7695C30.3181 11.7383 30.2396 12.5508 30.0823 13.207C29.925 13.8555 29.6814 14.4023 29.3512 14.8477C29.021 15.2929 28.6082 15.6523 28.113 15.9258C27.6256 16.1992 27.0752 16.3945 26.462 16.5117C25.8488 16.6288 25.161 16.6875 24.3984 16.6875C23.282 16.6875 22.3386 16.5742 21.5682 16.3476C20.7976 16.1133 20.1688 15.7656 19.6814 15.3046C19.2019 14.8359 18.8441 14.2695 18.6082 13.6055C18.3803 12.9414 18.2663 12.0859 18.2663 11.0391V3.45703C18.2663 3.08985 18.2546 2.78125 18.2309 2.53125C18.2152 2.28124 18.1641 2.07813 18.0776 1.92187C17.999 1.76562 17.8731 1.64062 17.7003 1.54687C17.5352 1.44531 17.3032 1.35547 17.0044 1.27734V0.503906H23.1955V1.27734C22.8731 1.36328 22.6334 1.45703 22.4761 1.55859C22.3269 1.65234 22.2127 1.76953 22.1343 1.91016C22.0556 2.05078 22.0005 2.23437 21.9691 2.46093C21.9377 2.6875 21.9219 3.01953 21.9219 3.45703V11.1914C21.9219 11.8086 21.9613 12.3711 22.0399 12.8789C22.1184 13.3867 22.26 13.8242 22.4644 14.1914C22.6766 14.5508 22.9675 14.8281 23.337 15.0234C23.7065 15.2187 24.1821 15.3163 24.7638 15.3163C25.5658 15.3163 26.1632 15.1563 26.5564 14.8359C26.9495 14.5156 27.2247 14.0703 27.3818 13.5C27.5469 12.9219 27.6295 12.0625 27.6295 10.9219V3.44532ZM45.2946 0.867187V4.26562H43.6908C43.5021 3.38281 43.2034 2.73438 42.7946 2.32032C42.3857 1.89843 41.8512 1.6875 41.1909 1.6875C39.9486 1.6875 39.0093 2.28124 38.3724 3.46875C37.7356 4.64844 37.4173 6.40234 37.4173 8.73046C37.4173 10.8945 37.7081 12.5352 38.2899 13.6523C38.8716 14.7617 39.7246 15.3163 40.8488 15.3163C41.4227 15.3163 41.8905 15.2226 42.2521 15.0351C42.6138 14.8398 42.9007 14.5508 43.113 14.168C43.333 13.7851 43.5217 13.2461 43.679 12.5508H45.2946V16.1016C44.4298 16.3047 43.6398 16.4532 42.9243 16.5468C42.2088 16.6407 41.466 16.6875 40.6955 16.6875C39.0603 16.6875 37.7238 16.3945 36.6861 15.8086C35.6562 15.2226 34.8936 14.3398 34.3984 13.1602C33.9109 11.9727 33.6672 10.4727 33.6672 8.66016C33.6672 6.96484 33.9542 5.49219 34.5281 4.24218C35.1098 2.98437 35.9628 2.01562 37.087 1.33594C38.2112 0.656249 39.5555 0.316406 41.1201 0.316406C41.914 0.316406 42.6334 0.359374 43.2781 0.445312C43.9228 0.53125 44.5949 0.671875 45.2946 0.867187ZM61.3323 13.5586C61.3323 14.1601 61.3558 14.5742 61.4031 14.8008C61.458 15.0195 61.5643 15.2031 61.7214 15.3516C61.8787 15.4999 62.1656 15.625 62.5823 15.7266V16.5H56.4266V15.7266C56.8826 15.6093 57.1774 15.4921 57.3112 15.375C57.4447 15.2578 57.5391 15.0937 57.594 14.8828C57.6491 14.6641 57.6766 14.2227 57.6766 13.5586V8.85937H52.3465V13.5586C52.3465 13.832 52.3543 14.0859 52.37 14.3203C52.3857 14.5547 52.4173 14.7461 52.4644 14.8945C52.5116 15.0429 52.5783 15.168 52.6648 15.2695C52.7592 15.3711 52.885 15.4609 53.0422 15.5391C53.1995 15.6093 53.3921 15.6718 53.62 15.7266V16.5H47.429V15.7266C47.7199 15.6484 47.9478 15.5664 48.113 15.4804C48.2859 15.3867 48.4117 15.2617 48.4903 15.1054C48.5768 14.9414 48.6319 14.7383 48.6555 14.4961C48.679 14.2461 48.6908 13.9336 48.6908 13.5586V3.45703C48.6908 3.08985 48.679 2.78125 48.6555 2.53125C48.6398 2.28124 48.5886 2.07813 48.5021 1.92187C48.4235 1.76562 48.2977 1.64062 48.1247 1.54687C47.9596 1.44531 47.7278 1.35547 47.429 1.27734V0.503906H53.62V1.27734C53.2034 1.39453 52.9164 1.52343 52.7592 1.66407C52.6099 1.80468 52.5038 1.99218 52.4408 2.22657C52.3779 2.45313 52.3465 2.86719 52.3465 3.46875V7.38282H57.6766V3.46875C57.6766 2.875 57.6491 2.46484 57.594 2.23828C57.5469 2.00391 57.4447 1.81641 57.2875 1.67578C57.1382 1.52734 56.8512 1.39453 56.4266 1.27734V0.503906H62.5823V1.27734C62.2364 1.37109 61.9848 1.47266 61.8275 1.58203C61.6704 1.6836 61.5563 1.81641 61.4856 1.98046C61.4227 2.14453 61.3795 2.32812 61.3558 2.53125C61.3401 2.73438 61.3323 3.04687 61.3323 3.46875V13.5586ZM76.5564 0.503906V4.23046H74.9407C74.6814 3.48828 74.4612 2.98828 74.2804 2.73046C74.0995 2.46484 73.8834 2.25781 73.6318 2.10937C73.3803 1.95312 72.9518 1.875 72.3465 1.875H69.7758V7.5H71.3323C71.6783 7.5 71.9495 7.45312 72.146 7.35937C72.3426 7.25781 72.5038 7.09375 72.6295 6.86718C72.7631 6.64062 72.889 6.28906 73.0069 5.8125H74.3394V10.5703H73.0069C72.8968 10.1172 72.7749 9.77343 72.6413 9.53907C72.5077 9.29688 72.3465 9.12499 72.1578 9.02343C71.977 8.92188 71.7018 8.87109 71.3323 8.87109H69.7758V15.1288H72.3347C72.6099 15.1288 72.8417 15.1132 73.0304 15.082C73.2191 15.0429 73.3881 14.9805 73.5376 14.8945C73.6869 14.8086 73.8284 14.6914 73.962 14.543C74.1036 14.3945 74.2254 14.2344 74.3276 14.0625C74.4376 13.8906 74.5516 13.6641 74.6696 13.3828C74.7875 13.1016 74.9172 12.7148 75.0588 12.2227H76.6743L76.4502 16.5H64.8583V15.7266C65.1492 15.6484 65.3771 15.5664 65.5423 15.4804C65.7152 15.3867 65.841 15.2617 65.9196 15.1054C66.0061 14.9414 66.061 14.7383 66.0846 14.4961C66.1083 14.2461 66.1201 13.9336 66.1201 13.5586V3.45703C66.1201 3.08985 66.1083 2.78125 66.0846 2.53125C66.0689 2.28124 66.0179 2.07813 65.9314 1.92187C65.8527 1.76562 65.727 1.64062 65.554 1.54687C65.3889 1.44531 65.157 1.35547 64.8583 1.27734V0.503906H76.5564ZM93.113 0.503906V1.27734C92.7986 1.37891 92.5744 1.46484 92.4408 1.53516C92.3151 1.60546 92.2049 1.69921 92.1105 1.81641C92.0241 1.93359 91.9573 2.11327 91.9101 2.35546C91.863 2.58984 91.8395 2.95312 91.8395 3.44532V16.5H88.8441L83.5376 7.38282C82.8221 6.14844 82.2953 5.17968 81.9574 4.47657H81.8512C81.9297 6.15625 81.9691 7.92969 81.9691 9.79687V13.5703C81.9691 14.1562 81.9966 14.5664 82.0517 14.8008C82.1145 15.0351 82.2207 15.2226 82.37 15.3633C82.5273 15.496 82.8182 15.6172 83.2426 15.7266V16.5H78.7851V15.7266C79.076 15.6484 79.3041 15.5625 79.469 15.4687C79.642 15.375 79.7679 15.25 79.8464 15.0937C79.9329 14.9297 79.988 14.7266 80.0115 14.4844C80.0351 14.2422 80.0469 13.9375 80.0469 13.5703V3.43359C80.0469 2.84766 80.0194 2.44531 79.9644 2.22657C79.9172 1.99999 79.8111 1.81249 79.646 1.66407C79.4888 1.51563 79.2019 1.38672 78.7851 1.27734V0.503906H83.5611L87.7356 7.71093C87.9951 8.16406 88.333 8.77734 88.7498 9.55078C89.1664 10.3242 89.5359 11.0547 89.8582 11.7422H90.0469C89.9605 9.87499 89.9172 7.83594 89.9172 5.625V3.44532C89.9172 2.93749 89.8976 2.57031 89.8582 2.34375C89.8189 2.11719 89.756 1.94532 89.6695 1.82812C89.591 1.71093 89.4808 1.61328 89.3394 1.53516C89.2058 1.45703 88.9777 1.37109 88.6555 1.27734V0.503906H93.113ZM96.7096 12.5508C96.9062 13.4805 97.2325 14.1758 97.6885 14.6367C98.1522 15.0898 98.8284 15.3163 99.7167 15.3163C100.181 15.3163 100.597 15.2383 100.967 15.082C101.336 14.9258 101.631 14.6758 101.851 14.332C102.079 13.9805 102.193 13.543 102.193 13.0195C102.193 12.5352 102.103 12.1172 101.922 11.7656C101.741 11.4063 101.45 11.0664 101.049 10.7461C100.648 10.4258 100.09 10.0859 99.3747 9.72657C98.7616 9.42187 98.2073 9.10546 97.7121 8.77734C97.2167 8.44921 96.7922 8.08984 96.4384 7.69921C96.0926 7.30078 95.8213 6.86718 95.6248 6.39843C95.4361 5.92968 95.3418 5.40234 95.3418 4.81641C95.3418 3.85546 95.5815 3.03906 96.061 2.36718C96.5406 1.69531 97.2325 1.1875 98.1365 0.843749C99.0485 0.492187 100.102 0.316406 101.297 0.316406C101.997 0.316406 102.665 0.355468 103.302 0.433592C103.938 0.503906 104.666 0.632812 105.483 0.820312V4.21875H103.868C103.718 3.60156 103.526 3.11328 103.29 2.75391C103.062 2.38672 102.775 2.11719 102.429 1.94532C102.083 1.77343 101.647 1.6875 101.12 1.6875C100.672 1.6875 100.271 1.76562 99.9172 1.92187C99.5634 2.07813 99.2843 2.3125 99.0799 2.625C98.8755 2.92968 98.7733 3.30078 98.7733 3.73828C98.7733 4.1914 98.8598 4.58593 99.0328 4.92187C99.2136 5.25 99.5124 5.57422 99.929 5.89453C100.346 6.20703 100.951 6.5664 101.745 6.97266C102.712 7.47265 103.471 7.96485 104.021 8.44921C104.579 8.92578 104.988 9.44922 105.247 10.0195C105.515 10.582 105.648 11.2383 105.648 11.9883C105.648 12.9492 105.424 13.7851 104.976 14.4961C104.528 15.1992 103.876 15.7422 103.019 16.125C102.162 16.5 101.171 16.6875 100.047 16.6875C99.245 16.6875 98.4078 16.6407 97.5352 16.5468C96.6704 16.461 95.8567 16.332 95.0941 16.1601V12.5508H96.7096ZM110.672 16.5V15.7266C111.002 15.6718 111.261 15.6015 111.45 15.5157C111.647 15.4218 111.792 15.2929 111.887 15.1288C111.981 14.9648 112.04 14.7578 112.063 14.5078C112.087 14.25 112.099 13.9336 112.099 13.5586V1.875H111.144C110.672 1.875 110.31 1.92969 110.059 2.03907C109.807 2.14843 109.587 2.32032 109.398 2.55468C109.218 2.78907 109.06 3.10546 108.927 3.50391C108.793 3.89452 108.683 4.26562 108.596 4.61718H106.981V0.503906H120.861V4.61718H119.245C119.096 4.08594 118.978 3.69531 118.891 3.44532C118.805 3.19531 118.706 2.98437 118.596 2.8125C118.494 2.63281 118.384 2.48437 118.266 2.36718C118.148 2.25 118.023 2.15625 117.889 2.08593C117.755 2.01562 117.586 1.96485 117.382 1.93359C117.185 1.89453 116.926 1.875 116.604 1.875H115.754V13.5586C115.754 13.9726 115.766 14.2891 115.79 14.5078C115.814 14.7187 115.857 14.8906 115.92 15.0234C115.982 15.1563 116.057 15.2656 116.144 15.3516C116.238 15.4297 116.364 15.5038 116.521 15.5742C116.686 15.6367 116.906 15.6874 117.181 15.7266V16.5H110.672ZM134.481 0.503906V4.23046H132.865C132.606 3.48828 132.386 2.98828 132.205 2.73046C132.024 2.46484 131.808 2.25781 131.556 2.10937C131.305 1.95312 130.876 1.875 130.271 1.875H127.7V7.5H129.257C129.603 7.5 129.874 7.45312 130.071 7.35937C130.267 7.25781 130.428 7.09375 130.554 6.86718C130.688 6.64062 130.814 6.28906 130.931 5.8125H132.264V10.5703H130.931C130.821 10.1172 130.699 9.77343 130.566 9.53907C130.432 9.29688 130.271 9.12499 130.082 9.02343C129.902 8.92188 129.626 8.87109 129.257 8.87109H127.7V15.1288H130.259C130.534 15.1288 130.766 15.1132 130.955 15.082C131.144 15.0429 131.313 14.9805 131.462 14.8945C131.611 14.8086 131.753 14.6914 131.887 14.543C132.028 14.3945 132.15 14.2344 132.252 14.0625C132.362 13.8906 132.476 13.6641 132.594 13.3828C132.712 13.1016 132.842 12.7148 132.983 12.2227H134.599L134.375 16.5H122.783V15.7266C123.074 15.6484 123.302 15.5664 123.467 15.4804C123.64 15.3867 123.765 15.2617 123.844 15.1054C123.931 14.9414 123.986 14.7383 124.009 14.4961C124.033 14.2461 124.045 13.9336 124.045 13.5586V3.45703C124.045 3.08985 124.033 2.78125 124.009 2.53125C123.993 2.28124 123.942 2.07813 123.856 1.92187C123.777 1.76562 123.652 1.64062 123.479 1.54687C123.313 1.44531 123.082 1.35547 122.783 1.27734V0.503906H134.481ZM141.663 13.5586C141.663 13.832 141.67 14.0859 141.686 14.3203C141.702 14.5547 141.733 14.7461 141.78 14.8945C141.828 15.0429 141.894 15.168 141.981 15.2695C142.075 15.3711 142.201 15.4609 142.358 15.5391C142.516 15.6093 142.708 15.6718 142.936 15.7266V16.5H136.745V15.7266C137.036 15.6484 137.264 15.5664 137.429 15.4804C137.602 15.3867 137.728 15.2617 137.806 15.1054C137.893 14.9414 137.948 14.7383 137.971 14.4961C137.995 14.2461 138.007 13.9336 138.007 13.5586V3.44532C138.007 3.07032 137.995 2.76172 137.971 2.51953C137.956 2.27734 137.905 2.07813 137.818 1.92187C137.74 1.75782 137.614 1.62891 137.441 1.53516C137.276 1.44141 137.044 1.35547 136.745 1.27734V0.503906H142.936V1.27734C142.614 1.36328 142.374 1.45703 142.217 1.55859C142.067 1.65234 141.953 1.76953 141.875 1.91016C141.796 2.05078 141.741 2.23437 141.71 2.46093C141.678 2.6875 141.663 3.01953 141.663 3.45703V13.5586ZM159.481 0.503906V1.27734C159.167 1.37891 158.942 1.46484 158.809 1.53516C158.684 1.60546 158.573 1.69921 158.478 1.81641C158.392 1.93359 158.326 2.11327 158.277 2.35546C158.231 2.58984 158.207 2.95312 158.207 3.44532V16.5H155.212L149.905 7.38282C149.19 6.14844 148.663 5.17968 148.325 4.47657H148.219C148.298 6.15625 148.337 7.92969 148.337 9.79687V13.5703C148.337 14.1562 148.365 14.5664 148.42 14.8008C148.482 15.0351 148.589 15.2226 148.738 15.3633C148.895 15.496 149.186 15.6172 149.611 15.7266V16.5H145.153V15.7266C145.444 15.6484 145.672 15.5625 145.837 15.4687C146.01 15.375 146.136 15.25 146.214 15.0937C146.301 14.9297 146.356 14.7266 146.38 14.4844C146.403 14.2422 146.415 13.9375 146.415 13.5703V3.43359C146.415 2.84766 146.387 2.44531 146.332 2.22657C146.285 1.99999 146.179 1.81249 146.014 1.66407C145.857 1.51563 145.57 1.38672 145.153 1.27734V0.503906H149.929L154.104 7.71093C154.364 8.16406 154.702 8.77734 155.118 9.55078C155.535 10.3242 155.903 11.0547 156.226 11.7422H156.415C156.329 9.87499 156.285 7.83594 156.285 5.625V3.44532C156.285 2.93749 156.265 2.57031 156.226 2.34375C156.187 2.11719 156.124 1.94532 156.038 1.82812C155.959 1.71093 155.849 1.61328 155.707 1.53516C155.574 1.45703 155.346 1.37109 155.023 1.27734V0.503906H159.481Z" fill="#333333"/>
<path d="M96.7103 12.5508C96.9068 13.4805 97.2331 14.1758 97.6891 14.6367C98.1528 15.0898 98.8291 15.3163 99.7174 15.3163C100.181 15.3163 100.598 15.2383 100.967 15.082C101.337 14.9258 101.632 14.6758 101.852 14.332C102.08 13.9805 102.194 13.543 102.194 13.0195C102.194 12.5352 102.103 12.1172 101.923 11.7656C101.742 11.4063 101.451 11.0664 101.05 10.7461C100.649 10.4258 100.091 10.0859 99.3753 9.72657C98.7622 9.42187 98.2079 9.10546 97.7127 8.77734C97.2173 8.44921 96.7928 8.08984 96.439 7.69921C96.0932 7.30078 95.822 6.86718 95.6254 6.39843C95.4368 5.92968 95.3424 5.40234 95.3424 4.81641C95.3424 3.85546 95.5821 3.03906 96.0617 2.36718C96.5412 1.69531 97.2331 1.1875 98.1371 0.843749C99.0491 0.492187 100.103 0.316406 101.298 0.316406C101.997 0.316406 102.665 0.355468 103.302 0.433592C103.939 0.503906 104.666 0.632812 105.484 0.820312V4.21875H103.868C103.719 3.60156 103.526 3.11328 103.291 2.75391C103.062 2.38672 102.775 2.11719 102.43 1.94532C102.084 1.77343 101.647 1.6875 101.121 1.6875C100.673 1.6875 100.272 1.76562 99.9178 1.92187C99.564 2.07813 99.2849 2.3125 99.0805 2.625C98.8762 2.92968 98.774 3.30078 98.774 3.73828C98.774 4.1914 98.8605 4.58593 99.0334 4.92187C99.2143 5.25 99.513 5.57422 99.9296 5.89453C100.346 6.20703 100.952 6.5664 101.746 6.97266C102.713 7.47265 103.471 7.96485 104.022 8.44921C104.58 8.92578 104.989 9.44922 105.248 10.0195C105.515 10.582 105.649 11.2383 105.649 11.9883C105.649 12.9492 105.425 13.7851 104.977 14.4961C104.529 15.1992 103.876 15.7422 103.019 16.125C102.162 16.5 101.172 16.6875 100.047 16.6875C99.2457 16.6875 98.4084 16.6407 97.5358 16.5468C96.671 16.461 95.8573 16.332 95.0947 16.1601V12.5508H96.7103Z" fill="#CFAF6C"/>
<path d="M14.245 13.3828C14.5516 13.8516 14.8072 14.2266 15.0115 14.5078C15.2238 14.7813 15.4085 14.9961 15.5658 15.1524C15.7231 15.3085 15.8763 15.4297 16.0257 15.5157C16.183 15.5937 16.3874 15.6679 16.6389 15.7383V16.5H10.2474V15.7266C10.5147 15.6874 10.6955 15.625 10.7899 15.5391C10.8842 15.4453 10.9314 15.3241 10.9314 15.1758C10.9314 15.0508 10.9117 14.9297 10.8724 14.8125C10.841 14.6875 10.7584 14.5078 10.6248 14.2734C10.4911 14.0391 10.2199 13.6094 9.81108 12.9844L8.00684 10.2187C7.7867 9.88281 7.5941 9.62109 7.42901 9.43359C7.27178 9.24609 7.11061 9.11328 6.94551 9.03516C6.78829 8.94922 6.56815 8.90625 6.28513 8.90625H6.04929V13.5586C6.04929 13.832 6.05715 14.0859 6.07288 14.3203C6.08859 14.5547 6.12005 14.7461 6.16722 14.8945C6.21439 15.0429 6.28121 15.168 6.36768 15.2695C6.46202 15.3711 6.58781 15.4609 6.74504 15.5391C6.90228 15.6093 7.09489 15.6718 7.32287 15.7266V16.5H1.13184V15.7266C1.42272 15.6484 1.6507 15.5664 1.81579 15.4804C1.98876 15.3867 2.11454 15.2617 2.19315 15.1054C2.27964 14.9414 2.33467 14.7383 2.35825 14.4961C2.38183 14.2461 2.39363 13.9336 2.39363 13.5586V3.45703C2.39363 3.08985 2.38183 2.78125 2.35825 2.53125C2.34252 2.28124 2.29143 2.07813 2.20495 1.92187C2.12633 1.76562 2.00055 1.64062 1.82759 1.54687C1.66249 1.44531 1.43058 1.35547 1.13184 1.27734V0.503906H7.32287V1.27734C6.99268 1.36328 6.74897 1.45703 6.59175 1.55859C6.44237 1.66015 6.32838 1.78125 6.24975 1.92187C6.17901 2.0625 6.12791 2.24218 6.09646 2.46093C6.06501 2.67969 6.04929 3.01171 6.04929 3.45703V7.62891H6.29694C6.65857 7.62891 6.94551 7.58985 7.15778 7.51171C7.37004 7.43359 7.58624 7.29297 7.80637 7.08984C8.03436 6.88672 8.46675 6.41406 9.10353 5.67187C9.74818 4.92187 10.212 4.34766 10.495 3.94921C10.7859 3.54297 10.9825 3.21093 11.0847 2.95312C11.1947 2.6875 11.2498 2.42578 11.2498 2.16796C11.2498 1.89453 11.1554 1.67968 10.9667 1.52343C10.7859 1.36719 10.5265 1.28516 10.1884 1.27734V0.503906H16.2144V1.30078C15.9157 1.35547 15.6601 1.4375 15.4479 1.54687C15.2357 1.65625 14.9919 1.83594 14.7167 2.08593C14.4416 2.32812 14.0917 2.6875 13.6672 3.16407L10.1295 7.10157L14.245 13.3828Z" fill="#CFAF6C"/>
</svg>
