<svg width="66" height="33" viewBox="0 0 66 33" fill="none" xmlns="http://www.w3.org/2000/svg">
<path d="M7.69147 30.2015L7.69544 30.2039C9.74407 31.4274 12.0798 32.03 14.68 32.03C17.2792 32.03 19.6027 31.4278 21.6264 30.2028C23.6806 28.9755 25.2682 27.1954 26.3924 24.8922C27.5487 22.5781 28.11 19.8182 28.11 16.64C28.11 13.4618 27.5487 10.7019 26.3925 8.38788C25.2682 6.08462 23.6806 4.30454 21.6265 3.07725C19.6028 1.85216 17.2792 1.25 14.68 1.25C12.0798 1.25 9.74407 1.85261 7.69544 3.07609L7.69544 3.07608L7.69147 3.07848C5.66458 4.30603 4.07899 6.08497 2.92918 8.38459L2.92915 8.38457L2.92592 8.39118C1.79763 10.7042 1.25 13.4627 1.25 16.64C1.25 19.8173 1.79763 22.5758 2.92592 24.8888L2.92589 24.8888L2.92918 24.8954C4.07899 27.195 5.66458 28.974 7.69147 30.2015ZM16.7182 20.6764L16.7157 20.685L16.7135 20.6937C16.4615 21.6764 16.1377 22.2386 15.8217 22.5194C15.4719 22.8304 15.1004 22.97 14.68 22.97C14.2596 22.97 13.8881 22.8304 13.5383 22.5194C13.2168 22.2337 12.8819 21.6658 12.6043 20.6851C12.3615 19.7333 12.23 18.3942 12.23 16.64C12.23 14.8556 12.3621 13.5188 12.6036 12.5972C12.8814 11.6151 13.2165 11.0466 13.5383 10.7606C13.8881 10.4496 14.2596 10.31 14.68 10.31C15.1004 10.31 15.4719 10.4496 15.8217 10.7606C16.1377 11.0414 16.4615 11.6036 16.7135 12.5863L16.7164 12.5975L16.7196 12.6085C16.9842 13.5225 17.13 14.8544 17.13 16.64C17.13 18.3964 16.9846 19.7317 16.7182 20.6764ZM28.5147 30.64V31.39H29.2647H51.7047H52.4547V30.64V23.32V22.57H51.7047H44.2047L46.767 20.2369C46.7674 20.2366 46.7678 20.2362 46.7682 20.2358C48.1502 18.9892 49.2209 17.8406 49.9583 16.7912L49.9584 16.7912L49.9637 16.7835C50.6911 15.7204 51.1913 14.6791 51.4323 13.662C51.6866 12.6981 51.8147 11.7303 51.8147 10.76C51.8147 8.83072 51.2933 7.1245 50.2291 5.67594C49.1781 4.24543 47.7295 3.15394 45.9162 2.38898C44.1012 1.62325 42.039 1.25 39.7447 1.25C36.6338 1.25 33.973 1.86951 31.8026 3.15464C29.6672 4.41901 28.0449 6.07707 26.9614 8.12993L26.6036 8.80796L27.2893 9.15082L34.4093 12.7108L35.0801 13.0462L35.4155 12.3754C35.7835 11.6395 36.2726 11.1165 36.8768 10.7712L36.8854 10.7663L36.8939 10.7611C37.5302 10.3748 38.1832 10.19 38.8647 10.19C39.6772 10.19 40.1465 10.3713 40.4085 10.6024L40.418 10.6108L40.4279 10.6189C40.6763 10.8235 40.8347 11.1258 40.8347 11.64C40.8347 11.8754 40.7956 12.1494 40.7058 12.4662C40.6303 12.7075 40.4651 13.0322 40.172 13.4475L40.1632 13.4599L40.155 13.4726C39.9075 13.855 39.489 14.3408 38.8705 14.934L28.7554 24.2894L28.5147 24.5121V24.84V30.64ZM54.668 30.1374L54.668 30.1374L54.6754 30.1445C55.8384 31.2462 57.2807 31.79 58.9513 31.79C60.6218 31.79 62.0641 31.2462 63.2271 30.1445L63.2271 30.1445L63.2345 30.1374C64.4044 28.9982 64.9813 27.5456 64.9813 25.84C64.9813 24.1122 64.4066 22.6619 63.2194 21.5683C62.0554 20.4963 60.6156 19.97 58.9513 19.97C57.2869 19.97 55.8471 20.4963 54.6831 21.5683C53.4959 22.6619 52.9212 24.1122 52.9212 25.84C52.9212 27.5456 53.4981 28.9982 54.668 30.1374Z" stroke="#CFAF6C" stroke-width="1.5"/>
</svg>
