<svg width="66" height="33" viewBox="0 0 66 33" fill="none" xmlns="http://www.w3.org/2000/svg">
<path d="M7.69147 30.2015L7.69544 30.2039C9.74407 31.4274 12.0798 32.03 14.68 32.03C17.2792 32.03 19.6027 31.4278 21.6264 30.2028C23.6806 28.9755 25.2682 27.1954 26.3924 24.8922C27.5487 22.5781 28.11 19.8182 28.11 16.64C28.11 13.4618 27.5487 10.7019 26.3925 8.38788C25.2682 6.08462 23.6806 4.30454 21.6265 3.07725C19.6028 1.85216 17.2792 1.25 14.68 1.25C12.0798 1.25 9.74407 1.85261 7.69544 3.07609L7.69544 3.07608L7.69147 3.07848C5.66458 4.30603 4.07899 6.08497 2.92918 8.38459L2.92915 8.38457L2.92592 8.39118C1.79763 10.7042 1.25 13.4627 1.25 16.64C1.25 19.8173 1.79763 22.5758 2.92592 24.8888L2.92589 24.8888L2.92918 24.8954C4.07899 27.195 5.66458 28.974 7.69147 30.2015ZM16.7182 20.6764L16.7157 20.685L16.7135 20.6937C16.4615 21.6764 16.1377 22.2386 15.8217 22.5194C15.4719 22.8304 15.1004 22.97 14.68 22.97C14.2596 22.97 13.8881 22.8304 13.5383 22.5194C13.2168 22.2337 12.8819 21.6658 12.6043 20.6851C12.3615 19.7333 12.23 18.3942 12.23 16.64C12.23 14.8556 12.3621 13.5188 12.6036 12.5972C12.8814 11.6151 13.2165 11.0466 13.5383 10.7606C13.8881 10.4496 14.2596 10.31 14.68 10.31C15.1004 10.31 15.4719 10.4496 15.8217 10.7606C16.1377 11.0414 16.4615 11.6036 16.7135 12.5863L16.7164 12.5975L16.7196 12.6085C16.9842 13.5225 17.13 14.8544 17.13 16.64C17.13 18.3964 16.9846 19.7317 16.7182 20.6764ZM27.2233 28.4467L26.9325 29.0791L27.5415 29.4162C29.1094 30.2841 30.9139 30.9337 32.9462 31.3731C34.9689 31.8104 36.9687 32.03 38.9447 32.03C42 32.03 44.5526 31.554 46.5582 30.5518C48.5477 29.5707 50.0556 28.284 51.0252 26.6702C51.9975 25.0959 52.4947 23.4286 52.4947 21.68C52.4947 18.9869 51.4834 16.7497 49.4721 15.03C48.62 14.3014 47.6164 13.7363 46.4702 13.3262L50.7594 8.96595L50.9747 8.74706V8.44V2.64V1.89H50.2247H29.3447H28.5947V2.64V9.76V10.51H29.3447H37.5664L35.6186 12.49L34.69 13.434L34.4747 13.6529V13.96V19.76V20.51H35.2247H38.9447C40.1144 20.51 40.7713 20.687 41.0812 20.899L41.0925 20.9068L41.1042 20.9141C41.3871 21.0928 41.5147 21.3167 41.5147 21.68C41.5147 21.9143 41.4601 22.0883 41.3713 22.2283C41.2809 22.371 41.1288 22.519 40.8739 22.6571C40.3497 22.9283 39.6152 23.09 38.6247 23.09C37.5217 23.09 36.3305 22.9399 35.0484 22.6328C33.8105 22.3035 32.6213 21.8101 31.4799 21.1506L30.7671 20.7388L30.4233 21.4867L27.2233 28.4467ZM54.5118 30.1374L54.5117 30.1374L54.5192 30.1445C55.6822 31.2462 57.1245 31.79 58.795 31.79C60.4655 31.79 61.9078 31.2462 63.0708 30.1445L63.0709 30.1445L63.0782 30.1374C64.2481 28.9982 64.825 27.5456 64.825 25.84C64.825 24.1122 64.2504 22.6619 63.0631 21.5683C61.8991 20.4963 60.4594 19.97 58.795 19.97C57.1306 19.97 55.6909 20.4963 54.5269 21.5683C53.3396 22.6619 52.765 24.1122 52.765 25.84C52.765 27.5456 53.3419 28.9982 54.5118 30.1374Z" stroke="#CFAF6C" stroke-width="1.5"/>
</svg>
