<svg width="71" height="33" viewBox="0 0 71 33" fill="none" xmlns="http://www.w3.org/2000/svg">
<path d="M7.69147 30.2015L7.69544 30.2039C9.74407 31.4274 12.0798 32.03 14.68 32.03C17.2792 32.03 19.6027 31.4278 21.6264 30.2028C23.6806 28.9755 25.2682 27.1954 26.3924 24.8922C27.5487 22.5781 28.11 19.8182 28.11 16.64C28.11 13.4618 27.5487 10.7019 26.3925 8.38788C25.2682 6.08462 23.6806 4.30454 21.6265 3.07725C19.6028 1.85216 17.2792 1.25 14.68 1.25C12.0798 1.25 9.74407 1.85261 7.69544 3.07609L7.69544 3.07608L7.69147 3.07848C5.66458 4.30603 4.07899 6.08497 2.92918 8.38459L2.92915 8.38457L2.92592 8.39118C1.79763 10.7042 1.25 13.4627 1.25 16.64C1.25 19.8173 1.79763 22.5758 2.92592 24.8888L2.92589 24.8888L2.92918 24.8954C4.07899 27.195 5.66458 28.974 7.69147 30.2015ZM16.7182 20.6764L16.7157 20.685L16.7135 20.6937C16.4615 21.6764 16.1377 22.2386 15.8217 22.5194C15.4719 22.8304 15.1004 22.97 14.68 22.97C14.2596 22.97 13.8881 22.8304 13.5383 22.5194C13.2168 22.2337 12.8819 21.6658 12.6043 20.6851C12.3615 19.7333 12.23 18.3942 12.23 16.64C12.23 14.8556 12.3621 13.5188 12.6036 12.5972C12.8814 11.6151 13.2165 11.0466 13.5383 10.7606C13.8881 10.4496 14.2596 10.31 14.68 10.31C15.1004 10.31 15.4719 10.4496 15.8217 10.7606C16.1377 11.0414 16.4615 11.6036 16.7135 12.5863L16.7164 12.5975L16.7196 12.6085C16.9842 13.5225 17.13 14.8544 17.13 16.64C17.13 18.3964 16.9846 19.7317 16.7182 20.6764ZM28.7053 25.84V26.59H29.4553H43.2253V30.64V31.39H43.9753H53.1353H53.8853V30.64V26.59H56.8553H57.6053V25.84V18.52V17.77H56.8553H53.8853V14.24V13.49H53.1353H44.6995L51.6398 3.05535L52.4149 1.89H51.0153H41.3353H40.9418L40.7182 2.21376L28.8382 19.4138L28.7053 19.6062V19.84V25.84ZM43.5053 15.2855V17.77H41.8528L43.5053 15.2855ZM59.5899 30.1374L59.5899 30.1374L59.5973 30.1445C60.7603 31.2462 62.2026 31.79 63.8731 31.79C65.5436 31.79 66.986 31.2462 68.1489 30.1445L68.149 30.1445L68.1563 30.1374C69.3263 28.9982 69.9031 27.5456 69.9031 25.84C69.9031 24.1122 69.3285 22.6619 68.1412 21.5683C66.9773 20.4963 65.5375 19.97 63.8731 19.97C62.2088 19.97 60.769 20.4963 59.605 21.5683C58.4178 22.6619 57.8431 24.1122 57.8431 25.84C57.8431 27.5456 58.42 28.9982 59.5899 30.1374Z" stroke="#CFAF6C" stroke-width="1.5"/>
</svg>
