<svg width="67" height="33" viewBox="0 0 67 33" fill="none" xmlns="http://www.w3.org/2000/svg">
<path d="M7.69147 30.2015L7.69544 30.2039C9.74407 31.4274 12.0798 32.03 14.68 32.03C17.2792 32.03 19.6027 31.4278 21.6264 30.2028C23.6806 28.9755 25.2682 27.1954 26.3924 24.8922C27.5487 22.5781 28.11 19.8182 28.11 16.64C28.11 13.4618 27.5487 10.7019 26.3925 8.38788C25.2682 6.08462 23.6806 4.30454 21.6265 3.07725C19.6028 1.85216 17.2792 1.25 14.68 1.25C12.0798 1.25 9.74407 1.85261 7.69544 3.07609L7.69544 3.07608L7.69147 3.07848C5.66458 4.30603 4.07899 6.08497 2.92918 8.38459L2.92915 8.38457L2.92592 8.39118C1.79763 10.7042 1.25 13.4627 1.25 16.64C1.25 19.8173 1.79763 22.5758 2.92592 24.8888L2.92589 24.8888L2.92918 24.8954C4.07899 27.195 5.66458 28.974 7.69147 30.2015ZM16.7182 20.6764L16.7157 20.685L16.7135 20.6937C16.4615 21.6764 16.1377 22.2386 15.8217 22.5194C15.4719 22.8304 15.1004 22.97 14.68 22.97C14.2596 22.97 13.8881 22.8304 13.5383 22.5194C13.2168 22.2337 12.8819 21.6658 12.6043 20.6851C12.3615 19.7333 12.23 18.3942 12.23 16.64C12.23 14.8556 12.3621 13.5188 12.6036 12.5972C12.8814 11.6151 13.2165 11.0466 13.5383 10.7606C13.8881 10.4496 14.2596 10.31 14.68 10.31C15.1004 10.31 15.4719 10.4496 15.8217 10.7606C16.1377 11.0414 16.4615 11.6036 16.7135 12.5863L16.7164 12.5975L16.7196 12.6085C16.9842 13.5225 17.13 14.8544 17.13 16.64C17.13 18.3964 16.9846 19.7317 16.7182 20.6764ZM28.0539 28.4467L27.7631 29.0791L28.3721 29.4162C29.94 30.2841 31.7445 30.9337 33.7768 31.3731C35.7996 31.8104 37.7994 32.03 39.7753 32.03C42.8316 32.03 45.3849 31.5537 47.3907 30.5508L47.3945 30.5489C49.386 29.5391 50.8929 28.2236 51.8605 26.5825C52.8307 24.9553 53.3253 23.2375 53.3253 21.44C53.3253 19.6675 52.91 18.0453 52.0685 16.5912C51.232 15.072 49.8889 13.8963 48.1001 13.044C46.3065 12.1766 43.9682 11.77 41.1353 11.77H40.4987L40.5964 10.51H50.7353H51.4853V9.76V2.64V1.89H50.7353H32.1353H31.4445L31.3878 2.57844L29.9878 19.5784L29.921 20.39H30.7353H38.8553C39.9831 20.39 40.7695 20.4703 41.258 20.6036L41.258 20.6036L41.266 20.6057C41.805 20.7463 42.0415 20.9249 42.1353 21.05L42.1448 21.0627L42.1548 21.0749C42.2788 21.2265 42.3453 21.4028 42.3453 21.64C42.3453 21.8743 42.2907 22.0483 42.2019 22.1883C42.1109 22.3318 41.9575 22.4808 41.6997 22.6196C41.1475 22.917 40.3999 23.09 39.4153 23.09C38.3121 23.09 37.1347 22.9398 35.8806 22.6332C34.6421 22.304 33.4525 21.8104 32.3105 21.1506L31.5978 20.7388L31.2539 21.4867L28.0539 28.4467ZM55.0977 30.1374L55.0977 30.1374L55.1051 30.1445C56.2681 31.2462 57.7104 31.79 59.3809 31.79C61.0515 31.79 62.4938 31.2462 63.6567 30.1445L63.6568 30.1445L63.6642 30.1374C64.8341 28.9982 65.4109 27.5456 65.4109 25.84C65.4109 24.1122 64.8363 22.6619 63.649 21.5683C62.4851 20.4963 61.0453 19.97 59.3809 19.97C57.7166 19.97 56.2768 20.4963 55.1128 21.5683C53.9256 22.6619 53.3509 24.1122 53.3509 25.84C53.3509 27.5456 53.9278 28.9982 55.0977 30.1374Z" stroke="#CFAF6C" stroke-width="1.5"/>
</svg>
